<svg width="128" height="128" viewBox="0 0 128 128" fill="none" xmlns="http://www.w3.org/2000/svg">
<rect width="128" height="128" rx="24" fill="#485FE5"/>
<path fill-rule="evenodd" clip-rule="evenodd" d="M100.522 64.2609C100.522 84.2873 84.2873 100.522 64.2609 100.522C44.2346 100.522 28 84.2873 28 64.2609C28 44.2346 44.2346 28 64.2609 28C84.2873 28 100.522 44.2346 100.522 64.2609ZM64.43 69.4147C71.1132 59.9634 71.4083 54.2355 64.43 44.116C57.3185 54.4514 58.2351 59.9297 64.43 69.4147ZM61.2564 81.726C62.3186 70.1994 59.7102 65.0913 48.607 59.8167C47.616 72.3232 51.149 76.6092 61.2564 81.726ZM67.6467 81.726C66.5845 70.1994 69.1929 65.0913 80.2961 59.8167C81.2871 72.3232 77.7541 76.6092 67.6467 81.726Z" fill="white"/>
</svg>
