<svg width="131" height="42" viewBox="0 0 131 42" fill="none" xmlns="http://www.w3.org/2000/svg">
<path d="M69.04 10.5526C69.04 12.0663 67.8531 13.2851 66.3801 13.2851C64.9071 13.2851 63.721 12.0663 63.721 10.5526C63.721 9.039 64.8666 7.82018 66.3801 7.82018C67.8948 7.86218 69.04 9.08142 69.04 10.5526ZM58.0751 16.0604V16.7332C58.0751 16.7332 56.8073 15.0508 54.1069 15.0508C49.6479 15.0508 46.1697 18.5405 46.1697 23.375C46.1697 28.1679 49.607 31.6992 54.1069 31.6992C56.8481 31.6992 58.0751 29.9756 58.0751 29.9756V30.69C58.0751 31.0264 58.3211 31.278 58.6481 31.278H61.9615V15.4699H58.6481C58.3211 15.4712 58.0751 15.766 58.0751 16.0604ZM58.0751 26.1919C57.462 27.1171 56.2342 27.916 54.7617 27.916C52.1434 27.916 50.1383 26.2343 50.1383 23.375C50.1383 20.5161 52.1434 18.8345 54.7617 18.8345C56.1938 18.8345 57.5029 19.6753 58.0751 20.5581V26.1919ZM64.4167 15.4712H68.344V31.2792H64.4167V15.4712ZM123.085 15.0503C120.385 15.0503 119.116 16.7328 119.116 16.7328V7.86218H115.189V31.2792H118.503C118.831 31.2792 119.075 30.9848 119.075 30.6904V29.976C119.075 29.976 120.344 31.6997 123.044 31.6997C127.503 31.6997 130.981 28.1692 130.981 23.3763C130.981 18.5833 127.503 15.0503 123.085 15.0503ZM122.43 27.8735C120.916 27.8735 119.73 27.0755 119.116 26.1499V20.5161C119.73 19.6753 121.039 18.7925 122.43 18.7925C125.049 18.7925 127.053 20.4741 127.053 23.333C127.053 26.1919 125.049 27.8735 122.43 27.8735ZM113.144 21.9042V31.3212H109.216V22.3662C109.216 19.7601 108.397 18.7085 106.189 18.7085C105.003 18.7085 103.776 19.3393 102.997 20.2645V31.2797H99.0705V15.4716H102.179C102.506 15.4716 102.752 15.766 102.752 16.0604V16.7332C103.897 15.5136 105.411 15.0508 106.924 15.0508C108.643 15.0508 110.075 15.556 111.221 16.5648C112.611 17.7421 113.144 19.2553 113.144 21.9042ZM89.5365 15.0503C86.837 15.0503 85.5683 16.7328 85.5683 16.7328V7.86218H81.641V31.2792H84.9544C85.2818 31.2792 85.5274 30.9848 85.5274 30.6904V29.976C85.5274 29.976 86.7961 31.6997 89.4956 31.6997C93.9555 31.6997 97.4328 28.1692 97.4328 23.3763C97.4737 18.5829 93.9964 15.0503 89.5365 15.0503ZM88.8818 27.8735C87.3683 27.8735 86.1822 27.0755 85.5683 26.1499V20.5161C86.1822 19.6753 87.4913 18.7925 88.8818 18.7925C91.5008 18.7925 93.5051 20.4741 93.5051 23.333C93.5051 26.1919 91.5008 27.8735 88.8818 27.8735ZM78.245 15.0503C79.4311 15.0503 80.045 15.2612 80.045 15.2612V19.0025C80.045 19.0025 76.772 17.8672 74.7268 20.2641V31.3208H70.7987V15.4712H74.1129C74.4403 15.4712 74.6851 15.7656 74.6851 16.06V16.7328C75.4224 15.8496 77.0181 15.0503 78.245 15.0503ZM37.456 29.8496C37.2516 29.3452 37.0469 28.7988 36.8425 28.3359C36.5147 27.5795 36.1873 26.8643 35.9016 26.1919L35.8608 26.1499C33.0374 19.8433 30.0105 13.4535 26.8188 7.14778L26.6962 6.89494C26.3605 6.24079 26.0334 5.58205 25.7149 4.91888C25.3054 4.16163 24.8967 3.36365 24.2419 2.6064C22.9328 0.924754 21.0507 -0.000488281 19.0464 -0.000488281C17.0003 -0.000488281 15.1595 0.924758 13.8099 2.52199C13.1961 3.27839 12.7457 4.07722 12.337 4.83447C12.0176 5.49721 11.6905 6.15594 11.3556 6.81052L11.2326 7.06335C8.08226 13.3691 5.01406 19.7593 2.19108 26.0655L2.14981 26.149C1.86371 26.8227 1.53592 27.5371 1.20854 28.2931C1.00419 28.7559 0.799832 29.2603 0.595476 29.8067C0.0633327 31.362 -0.100569 32.8336 0.104605 34.3477C0.554597 37.501 2.59979 40.1486 5.42317 41.3267C6.48705 41.7895 7.5918 41.9995 8.73701 41.9995C9.06439 41.9995 9.47311 41.9575 9.8009 41.9151C11.1513 41.7471 12.5421 41.2851 13.8925 40.4863C15.5699 39.519 17.1655 38.1322 18.9654 36.1142C20.7654 38.1322 22.4019 39.519 24.0384 40.4863C25.3892 41.2851 26.7796 41.7471 28.1296 41.9151C28.4569 41.958 28.8665 41.9995 29.1939 41.9995C30.3395 41.9995 31.4847 41.7895 32.5073 41.3267C35.3715 40.1486 37.3759 37.459 37.8263 34.3477C38.1512 32.8765 37.9877 31.4057 37.456 29.8496ZM19.0051 32.0356C16.7956 29.1768 15.3635 26.4863 14.873 24.2167C14.6686 23.2494 14.6274 22.4086 14.7504 21.6518C14.8317 20.9789 15.0778 20.3901 15.4051 19.8857C16.1825 18.7513 17.4916 18.0361 19.0055 18.0361C20.5198 18.0361 21.8698 18.7089 22.6062 19.8857C22.9336 20.3901 23.1789 20.9794 23.2614 21.6518C23.3836 22.409 23.3427 23.2914 23.1384 24.2167C22.6459 26.4443 21.2138 29.1352 19.0051 32.0356ZM35.3282 34.0117C35.0421 36.1978 33.61 38.0902 31.6057 38.9311C30.6239 39.351 29.5597 39.4775 28.4966 39.351C27.474 39.2246 26.4506 38.8882 25.3875 38.2582C23.9145 37.4166 22.4419 36.1142 20.7233 34.1797C23.4233 30.7748 25.0597 27.6631 25.6736 24.8891C25.9601 23.5854 26.0014 22.4086 25.878 21.3149C25.7149 20.2641 25.3462 19.2969 24.7736 18.4561C23.5046 16.5636 21.3768 15.4712 19.0047 15.4712C16.6325 15.4712 14.5048 16.6064 13.2365 18.4561C12.6639 19.2969 12.2953 20.2641 12.1318 21.3149C11.9683 22.4086 12.0087 23.6274 12.3361 24.8891C12.9496 27.6631 14.627 30.8164 17.286 34.2217C15.6087 36.1558 14.0948 37.4594 12.6218 38.3002C11.5579 38.9311 10.5358 39.2675 9.51316 39.3931C8.40882 39.5195 7.34453 39.3511 6.40368 38.9731C4.39936 38.1322 2.96723 36.2398 2.68113 34.0537C2.55852 33.0029 2.63985 31.9521 3.04938 30.7748C3.17159 30.354 3.37676 29.934 3.58111 29.4296C3.86762 28.7568 4.19418 28.0415 4.52197 27.3271L4.56325 27.2435C7.38582 20.9789 10.4131 14.5888 13.5635 8.36701L13.6861 8.11418C14.0139 7.48419 14.3413 6.81136 14.6682 6.18053C14.9956 5.50771 15.3635 4.87688 15.8139 4.33005C16.673 3.32207 17.8182 2.77482 19.0868 2.77482C20.3555 2.77482 21.5007 3.32207 22.3598 4.33005C22.8102 4.87814 23.178 5.50897 23.5054 6.18053C23.8332 6.81136 24.1606 7.48419 24.4871 8.11418L24.6102 8.36701C27.7125 14.6146 30.6996 20.9219 33.5699 27.2855V27.3275C33.8977 28.0012 34.1838 28.7572 34.5112 29.4309C34.7156 29.9344 34.9203 30.3544 35.0429 30.7753C35.3695 31.8672 35.4921 32.9189 35.3282 34.0117Z" fill="black" fill-opacity="0.3"/>
</svg>
