<svg width="133" height="67" viewBox="0 0 133 67" fill="none" xmlns="http://www.w3.org/2000/svg">
<path d="M44.0226 16.4702H13.5944C11.7366 16.4702 10.2307 17.9875 10.2307 19.8592V50.5022C10.2307 52.3881 11.7366 53.9053 13.5944 53.9053H44.0085C45.8663 53.9053 47.3722 52.3881 47.3722 50.5163V19.8592C47.3863 17.9875 45.8803 16.4702 44.0226 16.4702V16.4702Z" fill="#B3B3B3"/>
<path d="M62.4033 45.525H65.964V29.8986H62.4033V45.525ZM75.3936 36.2938C73.5781 35.6983 71.8892 35.2303 71.8892 34.0959V34.0392C71.8892 33.1175 72.6773 32.4652 74.0707 32.4652C74.7462 32.4652 75.4922 32.6212 76.2803 32.8906C76.2803 32.8906 76.2944 32.8906 76.3085 32.9048C76.3788 32.9332 76.4492 32.9615 76.5055 32.9757C77.0685 33.16 78.5885 33.4011 79.8692 31.3875C78.2085 30.3099 76.0973 29.6292 74.1551 29.6292C71.0729 29.6292 68.624 31.4301 68.624 34.3937V34.4504C68.624 37.4424 71.1855 38.3925 73.4796 39.0447C75.2951 39.6119 76.9418 40.0232 76.9418 41.2285V41.2852C76.9418 42.3203 76.0551 42.9726 74.5351 42.9726C73.5218 42.9726 72.4099 42.7032 71.2981 42.1785C70.9744 42.0367 69.3136 41.4695 67.9062 43.5114C69.8344 45.0287 72.2692 45.8228 74.4507 45.8228C77.6877 45.8228 80.207 44.1921 80.207 40.9023V40.8598C80.207 38.038 77.6596 37.0028 75.3936 36.2938ZM52.7062 41.3844L48.5262 29.8986H44.7122L51.0877 45.6526H54.2966L60.644 29.8986H56.9144L52.7062 41.3844ZM96.7299 29.5725C91.9729 29.5725 88.4403 33.2735 88.4403 37.7685C88.4403 42.2352 91.9307 45.8795 96.6736 45.8795C101.459 45.8795 104.991 42.1785 104.991 37.7118C104.991 33.2168 101.487 29.5725 96.7299 29.5725ZM96.7299 42.7741C93.9714 42.7741 92.001 40.4911 92.001 37.7118C92.001 34.9609 93.8166 32.7063 96.6736 32.7063C99.4603 32.7063 101.431 34.9893 101.431 37.7685C101.431 40.5336 99.601 42.7741 96.7299 42.7741ZM115.533 29.5725C113.126 29.5725 111.677 30.8487 110.677 32.3234V29.8986H107.117V45.5392H110.677V36.7192C110.677 34.2944 112.113 32.8339 114.182 32.8339C116.293 32.8339 117.503 34.2235 117.503 36.6483V45.525H121.064V35.5706C121.064 31.9406 119.037 29.5725 115.533 29.5725ZM82.5573 45.525H86.1181V29.8986H82.5573V45.525Z" fill="#B3B3B3"/>
<path d="M22.6442 27.2231C23.8827 27.2231 24.9101 26.2447 24.9101 24.9685C24.9101 23.6923 23.8686 22.7139 22.6442 22.7139C21.4057 22.7139 20.3783 23.6923 20.3783 24.9685C20.3783 26.2447 21.4197 27.2231 22.6442 27.2231ZM17.9435 39.2903C17.8168 39.8575 17.7464 40.4814 17.7464 40.9777C17.7464 42.9629 18.816 44.2816 21.082 44.2816C22.9679 44.2816 24.4879 43.1614 25.5857 41.3322L24.9101 44.0406H28.6538L30.7931 35.4049C31.3279 33.2212 32.3553 32.0868 33.9316 32.0868C35.1701 32.0868 35.9301 32.8667 35.9301 34.1429C35.9301 34.5116 35.902 34.9228 35.7612 35.3482L34.6635 39.3186C34.4946 39.8858 34.4242 40.4672 34.4242 41.006C34.4242 42.892 35.522 44.2674 37.8301 44.2674C39.8005 44.2674 41.3627 42.9912 42.2353 39.9284L40.7716 39.3612C40.0397 41.4173 39.4064 41.7859 38.8997 41.7859C38.3931 41.7859 38.1257 41.4456 38.1257 40.7792C38.1257 40.4814 38.196 40.1411 38.2946 39.7298L39.3642 35.8587C39.6316 34.9512 39.7301 34.1429 39.7301 33.4056C39.7301 30.5128 37.999 29.0098 35.8879 29.0098C33.9175 29.0098 31.919 30.7964 30.9197 32.6824L31.6516 29.3076H25.9375L25.1353 32.2853H27.8094L26.1627 38.9216C24.8679 41.8143 22.5035 41.8568 22.2079 41.8001C21.7153 41.6867 21.4057 41.5023 21.4057 40.8642C21.4057 40.4956 21.476 39.9709 21.6449 39.3186L24.1501 29.3076H17.8027L17.0005 32.2853H19.6323L17.9435 39.2903Z" fill="white"/>
</svg>
