<svg width="110" height="33" viewBox="0 0 110 33" fill="none" xmlns="http://www.w3.org/2000/svg">
<path d="M88.0759 27.2219H21.8411L27.143 32.5239L88.0759 27.2219Z" fill="black" fill-opacity="0.3"/>
<path d="M28.0134 5.93525V6.72659C26.7473 5.93525 25.7185 5.46045 24.1359 5.46045C19.467 5.46045 15.9851 9.65453 15.9851 14.8773C15.9851 20.1002 19.5461 24.2942 24.1359 24.2942C25.6394 24.2942 26.7473 23.8194 28.0134 23.0281V23.8194H32.0492V5.93525H28.0134ZM24.1359 20.021C21.841 20.021 20.1792 17.8053 20.1792 14.9565C20.1792 12.1077 21.841 9.89193 24.1359 9.89193C26.4307 9.89193 28.0134 12.1077 28.0134 14.9565C28.0925 17.7262 26.4307 20.021 24.1359 20.021Z" fill="black" fill-opacity="0.3"/>
<path d="M60.6164 5.93506V16.4598C60.6164 18.4382 59.2711 20.1 57.2928 20.1C55.3145 20.1 53.9692 18.4382 53.9692 16.4598V5.93506H49.8542V16.4598C49.8542 20.8122 52.7822 24.294 57.1345 24.294C59.1129 24.294 60.6164 23.1862 60.6164 23.1862V23.8192H64.6522V5.93506H60.6164Z" fill="black" fill-opacity="0.3"/>
<path d="M98.6003 23.8986V13.2947C98.6003 11.3163 99.9455 9.65453 101.924 9.65453C103.902 9.65453 105.247 11.3163 105.247 13.2947V23.8194H109.362V13.2947C109.362 8.94233 106.434 5.46045 102.082 5.46045C100.104 5.46045 98.6003 6.56832 98.6003 6.56832V5.93525H94.5645V23.8986H98.6003Z" fill="black" fill-opacity="0.3"/>
<path d="M4.27321 23.8983V16.9345H7.28029L12.5031 23.8983H17.8051L11.4744 15.5101C13.4527 14.0857 14.7188 11.7908 14.7188 9.17941C14.7188 4.90619 11.237 1.42432 6.96375 1.42432H0V23.8191H4.27321V23.8983ZM4.27321 5.69753H7.04289C8.94209 5.69753 10.5248 7.2802 10.5248 9.17941C10.5248 11.0786 8.94209 12.6613 7.04289 12.6613H4.27321V5.69753Z" fill="black" fill-opacity="0.3"/>
<path d="M75.7309 19.625C75.3352 19.8624 74.9395 20.0998 74.3856 20.0998C73.7525 20.0998 72.4864 19.625 72.4864 17.8841V10.2081H75.9683V5.93493H72.4864V1.42432H68.4506V5.93493H66.314V10.2081H68.4506V17.9632C68.4506 21.999 71.4576 24.3731 74.5439 24.3731C75.6517 24.3731 77.2344 23.9774 78.5005 23.2652L75.7309 19.625Z" fill="black" fill-opacity="0.3"/>
<path d="M42.1782 14.3232L49.2211 5.93502H43.5235L38.6172 12.1866V0H34.4231V23.8983H38.6172V16.5389L44.6313 23.8983H50.3289L42.1782 14.3232Z" fill="black" fill-opacity="0.3"/>
<path d="M85.1475 5.46045C80.3995 5.46045 77.0759 9.5754 77.0759 14.8773C77.0759 20.4167 81.3491 24.2942 85.5432 24.2942C87.6798 24.2942 90.4495 23.582 92.7444 20.2584L89.1834 18.201C86.4137 22.3159 81.7448 20.2584 81.1909 16.1435H92.9026C93.9314 9.73366 89.7373 5.46045 85.1475 5.46045ZM88.7086 12.5825H81.3491C82.2196 8.38839 87.9172 8.15099 88.7086 12.5825Z" fill="black" fill-opacity="0.3"/>
</svg>
