<svg width="145" height="28" viewBox="0 0 145 28" fill="none" xmlns="http://www.w3.org/2000/svg">
<path d="M96.1948 24.1672C98.1097 24.2104 99.9639 23.4876 101.353 22.1563L103.91 24.9434C102.221 26.6969 99.8793 28 96.2386 28C89.9969 28 85.9619 23.8173 85.9619 18.1626C85.9366 16.8666 86.1701 15.5787 86.6485 14.3758C87.1269 13.1729 87.8403 12.0796 88.7462 11.1611C89.6522 10.2426 90.732 9.51782 91.9214 9.0299C93.1108 8.54197 94.3854 8.30094 95.669 8.32117C101.867 8.32117 105.38 13.083 105.069 19.6869H90.4192C90.937 22.4298 92.8489 24.1793 96.1829 24.1793L96.1948 24.1672ZM100.644 16.5378C100.246 13.9759 98.7321 12.0896 95.7049 12.0896C92.8888 12.0896 90.925 13.6984 90.4192 16.5378H100.648H100.644ZM0 23.954L11.2725 12.3872H0.266876V8.75955H16.5025V12.4596L5.22997 24.0224H16.6618V27.6541H0V23.954ZM29.3165 24.1632C31.2314 24.2064 33.0855 23.4836 34.4748 22.1523L37.032 24.9394C35.3431 26.6929 33.001 27.996 29.3603 27.996C23.1186 27.996 19.0836 23.8133 19.0836 18.1586C19.0583 16.8626 19.2918 15.5747 19.7702 14.3718C20.2486 13.1689 20.962 12.0756 21.8679 11.1571C22.7739 10.2386 23.8537 9.5138 25.0431 9.02588C26.2325 8.53795 27.5071 8.29692 28.7907 8.31715C34.9886 8.31715 38.5018 13.079 38.1911 19.6829H23.5488C24.0666 22.4257 25.9786 24.1752 29.3125 24.1752L29.3165 24.1632ZM33.7737 16.5338C33.3754 13.9718 31.8618 12.0856 28.8346 12.0856C26.0184 12.0856 24.0547 13.6943 23.5488 16.5338H33.7777H33.7737ZM62.5446 18.1546C62.5446 12.1218 67.0177 8.32519 71.945 8.32519C73.1272 8.30931 74.2986 8.5549 75.3769 9.04472C76.4552 9.53455 77.4142 10.2567 78.1867 11.1606V0.012065H82.1699V27.6018H78.1867V24.9997C77.429 25.9407 76.4714 26.6975 75.3847 27.2141C74.298 27.7307 73.1102 27.9938 71.9091 27.9839C67.1293 27.9839 62.5485 24.1632 62.5485 18.1586L62.5446 18.1546ZM78.4097 18.1184C78.3784 16.9388 78.0033 15.7947 77.3314 14.8292C76.6594 13.8637 75.7204 13.1197 74.6319 12.6902C73.5433 12.2607 72.3535 12.1648 71.2113 12.4145C70.0691 12.6643 69.0251 13.2485 68.21 14.0941C67.3949 14.9398 66.8448 16.0093 66.6286 17.169C66.4123 18.3286 66.5395 19.5269 66.9942 20.6139C67.449 21.701 68.211 22.6285 69.1851 23.2806C70.1592 23.9326 71.3021 24.2802 72.4708 24.2798C75.8963 24.2798 78.4058 21.5208 78.4058 18.1184H78.4097ZM107.674 23.5881L111.283 21.6978C111.76 22.5566 112.461 23.2674 113.309 23.7537C114.157 24.2399 115.12 24.483 116.095 24.4568C118.35 24.4568 119.521 23.2904 119.521 21.9632C119.521 20.451 117.342 20.1132 114.972 19.6185C111.785 18.9348 108.467 17.877 108.467 13.9879C108.467 10.9997 111.283 8.23671 115.717 8.27693C119.21 8.27693 121.811 9.67653 123.285 11.9368L119.939 13.7868C119.477 13.0956 118.847 12.5348 118.111 12.1576C117.374 11.7804 116.554 11.5992 115.729 11.6311C113.586 11.6311 112.494 12.6889 112.494 13.8995C112.494 15.2588 114.223 15.6369 116.931 16.2442C120.015 16.9279 123.504 17.9454 123.504 21.8747C123.504 24.4809 121.249 27.996 115.912 27.9598C112.008 27.9598 109.26 26.3712 107.678 23.576L107.674 23.5881ZM134.326 19.2043L131.168 22.6831V27.5898H127.184V0H131.168V18.0701L139.624 8.69923H144.475L137.146 16.7831L144.667 27.5938H140.158L134.33 19.2043H134.326ZM50.5073 8.32117C45.7672 8.32117 41.8039 11.418 41.8039 16.5659V27.6059H45.8668V17.0767C45.8668 13.9799 47.6314 12.1218 50.6467 12.1218C53.662 12.1218 55.1597 13.9719 55.1597 17.0767V27.6059H59.1987V16.5659C59.1987 11.426 55.2154 8.32117 50.4953 8.32117" fill="black" fill-opacity="0.3"/>
</svg>
