<svg width="85" height="35" viewBox="0 0 85 35" fill="none" xmlns="http://www.w3.org/2000/svg">
<path d="M85 18.378C85 12.3898 82.0777 7.66513 76.4721 7.66513C70.8665 7.66513 67.4527 12.3898 67.4527 18.3385C67.4527 25.3795 71.4776 28.6302 77.216 28.6302C80.032 28.6302 82.1441 27.9985 83.7514 27.1167V22.721C82.1441 23.5238 80.2977 24.0108 77.9598 24.0108C75.6618 24.0108 73.6428 23.208 73.3771 20.4705H84.9203C84.9469 20.1678 85 18.9439 85 18.378ZM73.324 16.167C73.324 13.5348 74.9578 12.4293 76.4323 12.4293C77.8801 12.4293 79.421 13.5348 79.421 16.167H73.324ZM58.3271 7.66513C56.0158 7.66513 54.528 8.74431 53.7045 9.49448L53.399 8.04679H48.2052V35L54.103 33.7629L54.1163 27.1562C54.9664 27.7747 56.2283 28.6302 58.2872 28.6302C62.5113 28.6302 66.3635 25.5769 66.3635 18.1542C66.3768 11.3633 62.4715 7.66513 58.3271 7.66513ZM56.9191 23.787C55.5376 23.787 54.714 23.2869 54.1428 22.6815L54.103 13.9954C54.714 13.3243 55.5642 12.8373 56.9191 12.8373C59.0709 12.8373 60.5587 15.2326 60.5587 18.2858C60.572 21.4313 59.1108 23.787 56.9191 23.787ZM46.0002 0.268799V5.03299L40.0758 6.28326V1.51907L46.0002 0.268799ZM40.0891 8.05995H46.0134V28.2222H40.0891V8.05995ZM33.7396 9.78401C35.1211 7.27031 37.8708 7.78358 38.6678 8.05995V13.4295C37.9106 13.1926 35.5595 12.8373 34.1647 14.6535V28.2222H28.2802V8.05995H33.381L33.7396 9.78401ZM21.9175 8.05995H26.394V13.0347H21.9175V21.3523C21.9175 24.8004 25.6368 23.7212 26.394 23.4185V27.8669C25.6103 28.288 24.1889 28.6433 22.2496 28.6433C18.7561 28.6433 16.126 26.406 16.126 22.9447L16.1525 4.20386L21.9042 2.99307L21.9175 8.05995ZM5.95093 13.9954C5.95093 16.6276 14.9703 15.3773 14.9703 22.3394C14.9703 26.5508 11.5963 28.6302 6.6948 28.6302C4.66245 28.6302 2.44413 28.2354 0.252383 27.301V22.0367C2.2316 23.1027 4.75543 23.9055 6.70808 23.9055C8.02313 23.9055 8.96624 23.5501 8.96624 22.471C8.96624 19.6809 0 20.7337 0 14.2587C0 10.1262 3.188 7.65197 7.97 7.65197C9.92264 7.65197 11.8753 7.95467 13.8279 8.71799V14.2192C12.0347 13.2584 9.74996 12.7189 7.95671 12.7189C6.72136 12.732 5.95093 13.0874 5.95093 13.9954Z" fill="black" fill-opacity="0.3"/>
</svg>
