<svg width="20" height="20" viewBox="0 0 20 20" fill="none" xmlns="http://www.w3.org/2000/svg">
<path fill-rule="evenodd" clip-rule="evenodd" d="M11.2879 0.00012517C12.8707 0.00443517 13.258 0.0199067 14.1306 0.0613191C15.1935 0.108175 15.9205 0.280032 16.5574 0.526217C17.2217 0.776217 17.8275 1.17091 18.3277 1.67884C18.8397 2.179 19.2305 2.78065 19.4845 3.45266C19.7308 4.08575 19.9027 4.81637 19.9495 5.8791C19.9897 6.79342 19.9984 7.17375 20 8.97382L20.0002 10.5479C19.9985 12.769 19.9853 13.1328 19.9418 14.1233C19.8949 15.1861 19.7228 15.9129 19.4768 16.5498C18.957 17.8938 17.894 18.9565 16.5496 19.4762C15.9165 19.7224 15.1858 19.8943 14.1228 19.9411C13.0559 19.9881 12.7159 19.9997 9.99988 19.9997L9.71782 19.9997C7.2586 19.9988 6.90561 19.9864 5.87694 19.9411C4.81385 19.8943 4.08705 19.7224 3.45002 19.4762C2.78566 19.2262 2.17992 18.8315 1.67967 18.3236C1.17163 17.8234 0.777013 17.2218 0.522994 16.5498C0.276759 15.9167 0.104716 15.1861 0.0578508 14.1233C0.0193543 13.2471 0.00454846 12.8613 0.000488281 11.2464L0.000613689 8.71727C0.00492455 7.13475 0.0203991 6.74753 0.0618198 5.87513C0.108685 4.8124 0.280576 4.08575 0.52681 3.44884C0.777013 2.78462 1.17163 2.179 1.67967 1.67884C2.17992 1.16694 2.78169 0.776217 3.45399 0.522248C4.08705 0.276216 4.81782 0.104207 5.88076 0.0573509C6.75715 0.018862 7.14304 0.00405936 8.7583 0L11.2879 0.00012517ZM11.0544 1.81645H8.97008C7.23242 1.81985 6.86951 1.83429 5.97068 1.87421C4.99765 1.91725 4.4661 2.08132 4.11438 2.21807C3.68053 2.37818 3.28973 2.63214 2.96549 2.96426C2.62934 3.28477 2.37532 3.67931 2.21503 4.11307C2.07825 4.46472 1.91415 4.99219 1.87125 5.969C1.82772 6.94213 1.81454 7.28887 1.81283 9.45336V10.5646C1.81454 12.7286 1.82772 13.0723 1.87125 14.0491C1.91415 15.022 2.07825 15.5534 2.21503 15.9051C2.37532 16.3387 2.62934 16.7294 2.96152 17.0537C3.28195 17.3858 3.67671 17.6398 4.11041 17.8001C4.46213 17.9368 4.98971 18.1009 5.96671 18.1438C6.86229 18.1838 7.22749 18.1982 8.96599 18.2016H11.0491C12.7868 18.1982 13.1496 18.1838 14.0485 18.1438C15.0216 18.1009 15.553 17.9368 15.9048 17.8001C16.7763 17.464 17.468 16.7724 17.8041 15.9011C17.9409 15.5495 18.105 15.022 18.148 14.0452C18.1897 13.1074 18.2036 12.7563 18.2062 10.8155V9.20232C18.2036 7.26091 18.1897 6.90673 18.148 5.969C18.105 4.99601 17.9409 4.46472 17.8041 4.11307C17.6438 3.67931 17.3898 3.28859 17.0576 2.96426C16.7372 2.63214 16.3424 2.37818 15.9087 2.21807C15.557 2.08132 15.0294 1.91725 14.0524 1.87421C13.1568 1.83429 12.7945 1.81985 11.0544 1.81645ZM10.0037 4.86322C12.841 4.86322 15.1427 7.16451 15.1427 10.0012C15.1427 12.8379 12.841 15.1392 10.0037 15.1392C7.16658 15.1392 4.86468 12.8379 4.86468 10.0012C4.86468 7.16451 7.16658 4.86322 10.0037 4.86322ZM10.0037 6.66833C8.16312 6.66833 6.67015 8.16085 6.67015 10.0012C6.67015 11.8416 8.16312 13.3341 10.0037 13.3341C11.8444 13.3341 13.3372 11.8416 13.3372 10.0012C13.3372 8.16085 11.8444 6.66833 10.0037 6.66833ZM15.3459 3.4606C16.0086 3.4606 16.5458 3.99753 16.5458 4.66008C16.5458 5.32248 16.0086 5.85957 15.3459 5.85957C14.6834 5.85957 14.1462 5.32248 14.1462 4.66008C14.1462 3.99753 14.6834 3.4606 15.3459 3.4606Z" fill="white"/>
</svg>
